<svg width="800" height="326" viewBox="0 0 800 326" fill="none" xmlns="http://www.w3.org/2000/svg">
<path d="M8.46499 257.052C18.794 267.873 41.032 273.426 41.032 273.426C48.19 283.419 59.219 292.402 73.082 300.078C86.932 307.767 112.07 315.585 119.849 318.277C127.628 320.956 138.463 325.707 138.463 325.707C141 323.649 185.062 308.336 200.75 301.579C216.451 294.835 236.864 279.276 246.766 259.653C256.681 240.017 255.659 219.306 255.659 219.306C232.282 222.218 222.147 231.059 195.831 230.969C169.516 230.865 149.879 208.394 149.879 208.394C190.977 224.743 215.117 215.63 229.045 210.828C242.973 206.039 254.778 204.434 254.778 204.434L253.328 189.665C253.328 189.665 246.26 189.328 241.29 193.069C236.332 196.81 232.061 197.845 232.061 197.845L211.57 201.987C211.57 201.987 217.537 195.981 225.187 188.331C232.837 180.681 242.675 179.788 245.898 179.788H252.538C249.483 135.998 251.852 106.097 253.47 84.532C255.101 62.967 260.395 39.538 260.395 39.538L138.474 0.290985L16.514 39.654C23.103 67.134 25.251 108.97 25.795 125.888C26.339 142.806 24.772 178.778 24.772 178.778H24.811C28.008 176.306 31.503 174.235 35.27 172.63C43.917 168.902 53.948 167.815 63.255 169.614L80.626 163.038L80.743 162.999L80.976 163.219L117.44 197.301L119.097 198.841L119.149 198.893L111.305 195.825C111.111 195.708 110.943 195.592 110.748 195.463C109.505 194.66 108.327 193.91 107.214 193.211C91.176 183.076 88.005 182.506 88.005 182.506C90.011 184.448 91.824 186.57 93.467 188.836L93.415 188.81C99.162 196.758 102.554 206.518 102.554 217.067C102.554 233.17 94.658 247.434 82.542 256.21L70.607 242.683C70.465 242.321 70.322 241.997 70.18 241.66C69.831 240.806 69.468 240.003 69.106 239.265C61.534 223.926 51.735 231.46 51.735 231.46L61.132 253.582L49.275 242.735C38.13 221.248 27.762 231.59 26.972 232.419L26.92 232.471L36.317 250.101L36.99 251.369L28.991 245.208C28.991 245.208 27.904 243.862 24.059 238.917C20.215 233.972 14.739 233.312 10.778 235.707L9.88499 236.277C7.33499 230.387 5.911 223.889 5.911 217.068C5.173 205.172 12.888 189.51 20.02 182.222C19.489 182.623 13.393 187.102 7.72299 195.658C4.00799 201.056 1.13399 208.253 0.512993 215.23V215.256C-0.846007 226.996 1.76899 235.941 3.01099 239.358C1.25099 240.575 -0.00500488 241.494 -0.00500488 241.494L8.45999 257.04V257.052H8.46499ZM212.841 159.233L246.276 168.54C246.276 168.54 245.655 168.579 234.057 168.579C222.459 168.579 214.887 174.766 214.887 174.766L200 185.057L160.197 197.716C160.197 197.716 180.312 177.549 190.214 167.699C200.116 157.849 212.84 159.246 212.84 159.246V159.233H212.841ZM177.154 27.527L166.605 40.652L162.851 34.206L177.154 27.527ZM142.735 40.898L142.761 11.062L165.504 50.399L185.451 25.624V48.069L174.94 62.036L185.451 62.994V89.918C170.772 88.274 142.761 87.705 142.761 87.705L142.735 60.393L154.398 60.717C154.398 60.715 142.735 40.898 142.735 40.898ZM139.02 93.645C151.615 93.645 164.313 95.211 164.313 95.211L167.005 102.214L153.582 101.839L141.039 108.026L147.123 119.236L149.699 116.66V112.375L160.74 114.912L169.451 108.789L172.182 115.675L164.428 130.237L173.126 127.803L169.113 147.517L159.664 159.464L153.606 152.604L138.992 146.52L124.43 152.604L118.372 159.464V145.782L129.698 134.741L138.992 139.207L148.338 134.741L159.638 145.756V133.291L153.347 125.965C153.347 125.965 152.311 129.292 150.15 129.809C148.001 130.34 142.707 128.049 142.707 128.049C142.707 128.049 142.267 130.703 137.724 130.703L136.975 108L124.432 101.813L111.009 102.188L113.701 95.185C113.701 95.185 126.373 93.619 138.955 93.619L139.02 93.645ZM160.986 107.224L157.556 110.059L152.029 108.648V107.612L160.145 106.305L160.973 107.237L160.986 107.224ZM117.313 114.913L128.367 112.376V116.661L118.491 132.103L113.611 130.252L105.857 115.69L108.588 108.804L117.299 114.927L117.313 114.913ZM117.119 107.224L117.947 106.292L126.063 107.599V108.635L120.536 110.046L117.106 107.211L117.119 107.224ZM115.449 34.206L111.695 40.652L101.146 27.527L115.449 34.206ZM92.848 62.994L103.359 62.036L92.848 48.082V25.637L112.808 50.412L135.538 11.075L135.564 40.911L123.914 60.728L135.564 60.404L135.538 87.716C135.538 87.716 107.527 88.286 92.848 89.929V63.005V62.994ZM83.296 145.577L88.577 120.439L87.891 142.405L119.915 174.429V168.798L126.918 158.857L139.047 153.912L151.227 158.857L158.23 168.798V174.429L190.163 142.509L189.749 120.582L195.173 145.254L139.06 201.367L83.297 145.604L83.296 145.577ZM135.914 212.265C147.046 223.513 165.103 234.581 165.66 234.93L118.634 224.821C116.615 213.754 113.845 207.424 113.845 207.424L135.902 212.265H135.914ZM108.601 267.718C108.601 267.718 138.243 272.3 170.06 269.414C201.89 266.527 234.483 251.784 234.483 251.784C234.483 251.784 224.995 273.245 198.705 286.164C172.415 299.082 140.78 308.298 138.372 309.683C138.372 309.683 127.201 305.14 115.073 301.308C101.391 296.985 85.806 290.034 85.806 290.034C85.806 290.034 100.355 279.174 108.601 267.731V267.718Z" fill="#F4AF23"/>
<path d="M308.77 116.815V39.513H333.597V72.546L361.129 39.513H391.91L364.158 71.304L392.467 116.803H363.136L346.736 87.925L333.585 100.623V116.803H308.758L308.77 116.815Z" fill="#F4AF23"/>
<path d="M402.369 116.815V39.513H427.196V116.815H402.369Z" fill="#F4AF23"/>
<path d="M443.829 116.815V39.513H464.954L489.004 67.265C489.677 68.016 490.583 69.103 491.696 70.527C492.822 71.951 493.961 73.388 495.126 74.85C496.291 76.312 497.171 77.491 497.767 78.384L498.324 78.164C498.246 76.067 498.207 73.983 498.207 71.925V39.513H520.795V116.815H499.787L472.708 85.917C471.427 84.415 470.352 83.056 469.446 81.814C468.553 80.584 467.686 79.393 466.857 78.28L466.3 78.5C466.378 79.924 466.417 81.348 466.417 82.772V116.815H443.829Z" fill="#F4AF23"/>
<path d="M572.701 118.161C559.822 118.161 550.178 114.796 543.771 108.052C537.364 101.308 534.166 91.354 534.166 78.164C534.166 69.323 535.81 61.945 539.111 56.03C542.412 50.115 547.201 45.662 553.492 42.659C559.783 39.669 567.381 38.167 576.3 38.167C581.698 38.167 586.772 38.788 591.522 40.018C596.272 41.248 600.466 43.086 604.104 45.519C607.741 47.953 610.563 51.007 612.582 54.671C614.601 58.347 615.611 62.606 615.611 67.486H591.897C591.897 65.842 591.509 64.341 590.719 62.994C589.929 61.648 588.868 60.509 587.522 59.564C586.176 58.632 584.623 57.92 582.862 57.428C581.102 56.936 579.251 56.703 577.296 56.703C574.371 56.703 571.795 57.091 569.542 57.881C567.29 58.671 565.439 59.848 563.976 61.415C562.513 62.994 561.413 64.858 560.662 67.033C559.911 69.208 559.536 71.719 559.536 74.566V81.763C559.536 85.504 560.196 88.714 561.503 91.368C562.81 94.022 564.804 96.067 567.457 97.491C570.111 98.915 573.398 99.627 577.295 99.627C579.91 99.627 582.33 99.239 584.544 98.449C586.757 97.659 588.531 96.52 589.877 95.019C591.223 93.518 591.896 91.796 591.896 89.854V89.4H574.37V73.673H615.61V116.816H602.795L600.323 109.179C598.006 111.134 595.456 112.777 592.686 114.124C589.916 115.471 586.874 116.48 583.586 117.153C580.285 117.826 576.661 118.163 572.687 118.163H572.701V118.161Z" fill="#F4AF23"/>
<path d="M665.73 118.161C660.41 118.161 655.452 117.773 650.844 116.983C646.236 116.193 642.197 114.847 638.715 112.944C635.233 111.028 632.502 108.375 630.508 104.97C628.528 101.566 627.531 97.268 627.531 92.104V91.483C627.531 91.224 627.57 90.939 627.648 90.642H651.129C651.051 90.94 651.012 91.224 651.012 91.483V92.208C651.012 94.46 651.53 96.182 652.591 97.373C653.64 98.577 655.115 99.379 657.031 99.794C658.947 100.209 661.095 100.415 663.49 100.415C664.396 100.415 665.341 100.402 666.351 100.363C667.361 100.324 668.332 100.208 669.276 100.026C670.208 99.845 671.075 99.56 671.865 99.185C672.655 98.81 673.263 98.305 673.716 97.671C674.169 97.037 674.389 96.234 674.389 95.25C674.389 93.826 673.755 92.7 672.473 91.885C671.205 91.057 669.47 90.345 667.308 89.749C665.133 89.154 662.7 88.584 660.007 88.066C657.315 87.548 654.506 86.927 651.58 86.215C648.655 85.503 645.846 84.584 643.153 83.458C640.461 82.332 638.027 80.895 635.852 79.135C633.677 77.375 631.956 75.161 630.687 72.508C629.418 69.854 628.771 66.644 628.771 62.903C628.771 58.411 629.703 54.593 631.58 51.447C633.457 48.302 636.02 45.752 639.282 43.81C642.544 41.868 646.246 40.445 650.401 39.538C654.556 38.645 658.918 38.192 663.488 38.192C668.058 38.192 672.497 38.658 676.575 39.603C680.652 40.535 684.277 41.985 687.422 43.926C690.567 45.881 693.04 48.34 694.839 51.343C696.638 54.346 697.57 57.893 697.648 62.022V63.368H674.39V62.915C674.39 61.569 674.053 60.287 673.38 59.096C672.707 57.905 671.633 56.921 670.183 56.171C668.72 55.42 666.792 55.045 664.397 55.045C662.145 55.045 660.255 55.265 658.727 55.718C657.187 56.171 656.048 56.779 655.297 57.569C654.546 58.359 654.171 59.2 654.171 60.093C654.171 61.517 654.805 62.682 656.087 63.575C657.356 64.468 659.077 65.219 661.252 65.827C663.427 66.422 665.86 66.992 668.553 67.51C671.245 68.041 674.054 68.61 676.98 69.257C679.905 69.891 682.714 70.733 685.407 71.781C688.099 72.829 690.533 74.202 692.708 75.884C694.883 77.566 696.604 79.651 697.873 82.123C699.141 84.595 699.789 87.624 699.789 91.223C699.789 97.592 698.313 102.756 695.349 106.73C692.385 110.704 688.346 113.603 683.22 115.441C678.081 117.279 672.269 118.198 665.745 118.198L665.73 118.161Z" fill="#F4AF23"/>
<path d="M308.77 216.537V139.235H333.597V196.759H373.258V216.538H308.77V216.537Z" fill="#F4AF23"/>
<path d="M384.053 216.537V139.235H450.91V157.771H408.893V168.45H444.852V186.196H408.893V197.988H451.699V216.524H384.066L384.053 216.537Z" fill="#F4AF23"/>
<path d="M457.653 216.537L485.858 139.235H514.736L542.941 216.537H516.651L513.389 205.638H486.31L483.048 216.537H457.653ZM491.476 188.332H508.329L504.627 175.97C504.329 175.077 503.993 173.99 503.617 172.708C503.242 171.439 502.866 170.08 502.491 168.669C502.116 167.245 501.74 165.847 501.365 164.449C500.99 163.064 500.653 161.847 500.355 160.799H499.462C499.164 162.145 498.763 163.686 498.284 165.407C497.792 167.129 497.287 168.915 496.769 170.74C496.238 172.578 495.721 174.313 495.19 175.969L491.488 188.331L491.476 188.332Z" fill="#F4AF23"/>
<path d="M585.282 217.896C572.403 217.896 562.759 214.531 556.352 207.787C549.945 201.043 546.747 191.089 546.747 177.899C546.747 169.058 548.391 161.68 551.692 155.765C554.993 149.85 559.782 145.397 566.073 142.394C572.364 139.404 579.962 137.902 588.881 137.902C594.279 137.902 599.353 138.523 604.103 139.753C608.854 140.983 613.047 142.821 616.685 145.254C620.322 147.687 623.144 150.742 625.163 154.405C627.182 158.081 628.192 162.34 628.192 167.22H604.478C604.478 165.576 604.09 164.075 603.3 162.728C602.51 161.382 601.449 160.243 600.103 159.298C598.757 158.366 597.204 157.654 595.443 157.162C593.683 156.67 591.832 156.437 589.877 156.437C586.952 156.437 584.376 156.825 582.124 157.615C579.872 158.405 578.021 159.582 576.558 161.149C575.095 162.728 573.995 164.592 573.244 166.767C572.493 168.942 572.118 171.453 572.118 174.3V181.497C572.118 185.238 572.778 188.448 574.085 191.102C575.392 193.756 577.386 195.801 580.039 197.225C582.693 198.649 585.98 199.361 589.877 199.361C592.492 199.361 594.912 198.973 597.126 198.183C599.34 197.393 601.113 196.254 602.459 194.753C603.805 193.252 604.478 191.53 604.478 189.588V189.135H586.952V173.408H628.192V216.551H615.377L612.905 208.914C610.588 210.869 608.038 212.512 605.268 213.859C602.498 215.205 599.469 216.215 596.168 216.888C592.867 217.561 589.243 217.898 585.269 217.898H585.282V217.896Z" fill="#F4AF23"/>
<path d="M679.542 217.896C671.452 217.896 664.54 216.679 658.818 214.246C653.084 211.813 648.683 208.175 645.615 203.347C642.547 198.519 641.007 192.539 641.007 185.419V139.234H665.834V185.069C665.834 189.185 666.96 192.603 669.199 195.295C671.451 197.987 674.856 199.334 679.425 199.334C683.994 199.334 687.424 197.988 689.703 195.295C691.982 192.602 693.133 189.185 693.133 185.069V139.234H717.96V185.419C717.96 192.538 716.446 198.506 713.404 203.347C710.375 208.175 705.987 211.812 700.253 214.246C694.519 216.68 687.607 217.896 679.529 217.896H679.542Z" fill="#F4AF23"/>
<path d="M732.354 216.537V139.235H799.211V157.771H757.194V168.45H793.153V186.196H757.194V197.988H800V216.524H732.367L732.354 216.537Z" fill="#F4AF23"/>
<path d="M308.77 292.454C308.77 293.14 309.456 293.606 310.142 293.606H321.623C322.309 293.606 322.995 293.153 323.228 292.234L330.347 232.303V232.07C330.347 231.384 329.894 230.918 329.428 230.918H317.028C316.342 230.918 316.109 231.371 316.109 232.07L308.757 292.454H308.77Z" fill="#F4AF23"/>
<path d="M376.739 257.79C376.739 259.628 376.506 261.466 376.286 263.304L372.61 292.234C372.61 292.92 371.924 293.606 371.238 293.606H360.676C359.99 293.606 359.304 293.153 359.304 292.454V292.221L362.747 264.21C362.98 263.058 362.98 261.686 362.98 260.767C362.98 259.395 362.747 258.243 362.061 257.557C361.142 256.638 359.77 256.185 357.699 256.185C353.57 256.185 348.742 257.337 348.742 257.337L344.38 292.467C344.38 293.153 343.694 293.839 342.775 293.839H332.213C331.527 293.839 330.841 293.386 330.841 292.687V292.454L335.436 254.799C336.588 251.356 338.646 250.437 343.927 249.285C348.522 248.366 355.408 247.214 360.69 247.214C366.89 247.214 371.485 248.133 374.243 250.657C375.615 252.262 376.767 254.566 376.767 257.776L376.739 257.79Z" fill="#F4AF23"/>
<path d="M485.794 232.07C485.794 231.384 485.561 231.151 484.875 231.151H472.474C471.788 231.151 471.322 231.604 471.322 232.303L463.75 295.212C462.598 301.645 459.841 301.645 455.479 301.865C453.641 301.865 452.036 301.865 450.884 302.098C449.512 302.098 449.046 302.551 448.813 303.936L448.127 308.984V309.437C448.127 310.589 448.813 310.809 449.732 310.809C451.337 311.042 452.023 311.262 458.003 311.262C468.099 311.262 476.371 308.272 477.976 294.732L485.781 232.044L485.794 232.07Z" fill="#F4AF23"/>
<path d="M455.945 281.206C453.188 289.011 447.221 294.293 433.448 294.293C425.643 294.293 420.815 292.688 417.837 289.698C414.847 286.708 413.928 282.346 413.928 277.53C413.928 272.016 415.08 263.757 417.138 258.929C420.128 251.577 426.095 246.762 439.182 246.762C446.987 246.762 452.036 248.6 454.793 251.357C457.783 254.347 458.702 258.243 458.702 263.292C458.702 268.805 457.783 276.378 455.945 281.206ZM443.777 257.557C442.625 256.405 441.02 255.719 438.043 255.719C431.843 255.719 429.772 258.476 428.633 264.676C427.947 268.805 427.261 273.633 427.261 277.996C427.261 280.753 427.714 282.591 428.866 283.73C430.018 284.869 431.623 285.335 434.38 285.335C440.813 285.335 442.651 282.345 443.79 275.925C444.476 271.796 445.162 267.434 445.162 263.292C445.162 260.535 444.929 258.697 443.79 257.558" fill="#F4AF23"/>
<path d="M530.115 281.206C527.358 289.011 521.391 294.293 507.618 294.293C499.813 294.293 494.985 292.688 492.007 289.698C489.017 286.708 488.098 282.346 488.098 277.53C488.098 272.016 489.25 263.757 491.308 258.929C494.298 251.577 500.265 246.762 513.585 246.762C521.39 246.762 526.439 248.6 529.196 251.357C532.186 254.347 533.105 258.243 533.105 263.292C532.872 268.805 531.953 276.378 530.115 281.206ZM517.947 257.557C516.795 256.405 515.19 255.719 512.213 255.719C506.013 255.719 503.942 258.476 502.803 264.676C502.117 268.805 501.431 273.633 501.431 277.996C501.431 280.753 501.664 282.591 503.036 283.73C504.188 284.882 505.793 285.335 508.55 285.335C514.983 285.335 516.821 282.345 517.96 275.925C518.646 271.796 519.332 267.434 519.332 263.292C519.565 260.535 519.099 258.697 517.96 257.558" fill="#F4AF23"/>
<path d="M580.623 279.834C577.633 289.477 571.666 294.306 557.893 294.306C551.24 294.306 545.26 293.387 542.049 292.235C538.606 291.083 537.92 289.711 537.92 287.407C537.92 286.255 538.153 284.883 538.373 283.278L544.34 232.99C544.34 231.838 545.026 231.152 546.178 230.919H556.74C557.426 230.919 558.112 231.372 558.112 232.071V232.304L556.74 243.319L556.054 248.367C556.054 248.367 561.335 246.762 566.849 246.762C572.363 246.762 576.725 247.914 579.249 250.438C581.773 252.962 583.158 256.871 583.158 262.839C583.158 268.353 582.239 274.553 580.634 279.835M568.468 257.79C567.316 256.418 565.478 255.952 562.734 255.952C559.291 255.952 554.696 257.104 554.696 257.104L551.253 284.662C551.253 284.662 554.243 285.348 557.906 285.348C564.106 285.348 566.63 283.51 568.235 274.553C568.921 270.877 569.387 266.981 569.387 263.072C569.62 260.547 569.154 258.709 568.468 257.79Z" fill="#F4AF23"/>
<path d="M623.791 256.185C623.558 256.871 623.105 257.104 622.419 257.104H621.966C621.047 257.104 616.232 255.952 611.637 255.952C609.566 255.952 606.809 256.185 605.204 257.557C604.052 258.476 603.599 259.848 603.599 261.233C603.599 264.909 607.508 264.909 611.637 265.828C615.08 266.281 618.523 267.2 620.827 269.504C622.665 271.109 623.584 273.633 623.584 277.542C623.584 281.671 622.212 286.033 619.222 289.256C615.313 293.165 609.346 294.77 602.692 294.77C595.34 294.77 588.453 292.932 587.081 292.246C586.848 292.013 586.395 292.013 586.395 291.327V290.641L588.233 285.127C588.466 284.441 588.919 283.975 589.385 283.975H589.838C590.99 284.208 596.957 286.046 602.239 286.046C604.763 286.046 606.834 285.593 608.439 284.208C609.811 283.056 610.277 281.684 610.277 280.299C610.277 278.461 609.591 277.542 608.439 276.856C607.287 276.17 605.682 275.937 603.611 275.704C600.401 275.018 596.039 274.552 593.282 271.795C591.677 269.957 590.525 267.666 590.525 264.223C590.525 260.314 591.444 256.418 593.968 253.428C598.33 248.147 605.682 247.461 611.184 247.461C618.07 247.461 623.351 248.833 624.957 249.532C625.643 249.765 625.643 250.218 625.643 250.684V251.137L623.805 256.185H623.791Z" fill="#F4AF23"/>
<path d="M415.313 232.536C413.941 232.083 410.032 231.164 403.832 231.164C393.736 231.164 388.454 235.759 387.302 244.937L386.849 250.451L385.697 259.861L381.568 290.163V290.849L381.335 292.454C381.335 293.14 382.021 293.373 382.707 293.373H392.803C393.489 293.373 394.408 293.14 394.641 292.221V291.535L399.236 259.848H409.798C410.484 259.848 411.17 259.395 411.17 258.476L412.089 251.59C412.089 250.904 411.636 250.438 410.937 250.438H399.922L400.608 244.924C401.061 241.248 402.679 240.329 406.808 240.329C409.099 240.329 411.856 240.782 412.775 241.015H413.228C413.914 241.015 414.147 240.562 414.38 239.863L415.985 233.896V233.443C415.985 232.99 415.752 232.524 415.299 232.524L415.313 232.536Z" fill="#F4AF23"/>
</svg>
